<svg xmlns="http://www.w3.org/2000/svg" width="100" height="100" viewBox="0 0 100 100" id="cry-cat">
  <g fill="none" fill-rule="evenodd" transform="translate(-77 -498)">
    <g fill="currentColor" fill-rule="nonzero" transform="translate(77 498)">
      <path d="M72.8441235,36.5870324 C73.2392836,36.2011996 73.8724034,36.2087608 74.2582362,36.6039209 C76.8647227,39.2734173 78.7873582,42.4700331 79.9299589,46.1769304 C84.8454001,62.1239151 74.5567008,73 50,73 C25.4432992,73 15.1545999,62.1239151 20.0700411,46.1769304 C21.192392,42.5357287 23.0675024,39.3865755 25.6046851,36.7454586 C25.9872941,36.3471763 26.6203316,36.3344705 27.0186139,36.7170795 C27.4168962,37.0996885 27.429602,37.732726 27.046993,38.1310083 C24.7238951,40.5492704 23.0106576,43.4265664 21.9813066,46.766052 C17.5022967,61.2971388 26.6811346,71 50,71 C73.3188654,71 82.4977033,61.2971388 78.0186934,46.766052 C76.9707899,43.3663773 75.2141698,40.4457823 72.8272351,38.0011452 C72.4414022,37.6059851 72.4489635,36.9728653 72.8441235,36.5870324 Z"></path>
      <path d="M84.8759653 52.0077221C85.4239852 51.9392196 85.9237754 52.3279453 85.9922779 52.8759653 86.0558873 53.3848409 85.7252541 53.8521307 85.2389208 53.971137L85.1240347 53.9922779 77.1240347 54.9922779C76.5760148 55.0607804 76.0762246 54.6720547 76.0077221 54.1240347 75.9441127 53.6151591 76.2747459 53.1478693 76.7610792 53.028863L76.8759653 53.0077221 84.8759653 52.0077221zM76.0384761 57.7252789C76.1793629 57.2321749 76.6666665 56.9318197 77.1607389 57.0129066L77.2747211 57.0384761 84.2747211 59.0384761C84.8057561 59.1902003 85.1132482 59.7436861 84.9615239 60.2747211 84.8206371 60.7678251 84.3333335 61.0681803 83.8392611 60.9870934L83.7252789 60.9615239 76.7252789 58.9615239C76.1942439 58.8097997 75.8867518 58.2563139 76.0384761 57.7252789z"></path>
      <path d="M22.6046058,52.0082582 C23.1523297,51.9374274 23.6537673,52.3240257 23.724598,52.8717496 C23.7903694,53.3803504 23.461725,53.849041 22.9759018,53.9701129 L22.8611066,53.9917418 L15.1282504,54.9917418 C14.5805265,55.0625726 14.0790889,54.6759743 14.0082582,54.1282504 C13.9424868,53.6196496 14.2711312,53.150959 14.7569544,53.0298871 L14.8717496,53.0082582 L22.6046058,52.0082582 Z" transform="matrix(-1 0 0 1 37.733 0)"></path>
      <path d="M14.7742553,57.7152469 C14.9202869,57.223642 15.4107023,56.928395 15.9039004,57.0146401 L16.0176093,57.0413991 L22.7504655,59.0413991 C23.2798861,59.1986639 23.5815781,59.7553325 23.4243133,60.2847531 C23.2782817,60.776358 22.7878662,61.071605 22.2946681,60.9853599 L22.1809593,60.9586009 L15.4481031,58.9586009 C14.9186824,58.8013361 14.6169905,58.2446675 14.7742553,57.7152469 Z" transform="matrix(-1 0 0 1 38.199 0)"></path>
      <path d="M69.8567928,19.0103073 C70.2237946,18.9572026 70.5900499,19.1115454 70.8083531,19.4113021 C74.319444,24.2324525 75.358097,31.1568062 73.9886044,40.1505367 C73.9054653,40.6965278 73.3954545,41.0717435 72.8494633,40.9886044 C72.3034722,40.9054653 71.9282565,40.3954545 72.0113956,39.8494633 C73.2521708,31.7010456 72.4265487,25.4829743 69.5907948,21.1656458 L69.54,21.091 L69.4471801,21.1093098 C65.4215022,21.9124227 61.9987943,24.5603789 59.1563326,29.1200543 L58.9141135,29.5155669 C58.6924028,29.8840403 58.259945,30.0695086 57.8401683,29.9761503 C54.9099167,29.3244623 52.2956382,29 50,29 C47.7043618,29 45.0900833,29.3244623 42.1598317,29.9761503 C41.740055,30.0695086 41.3075972,29.8840403 41.0858865,29.5155669 C38.2788565,24.8504073 34.8931754,22.0957545 30.9061752,21.1848964 L30.459,21.091 L30.4092052,21.1656458 C27.6379003,25.3848532 26.7863958,31.4193878 27.9072075,39.2968803 L27.9886044,39.8494633 C28.0717435,40.3954545 27.6965278,40.9054653 27.1505367,40.9886044 C26.6045455,41.0717435 26.0945347,40.6965278 26.0113956,40.1505367 C24.641903,31.1568062 25.680556,24.2324525 29.1916469,19.4113021 C29.4099501,19.1115454 29.7762054,18.9572026 30.1432072,19.0103073 C34.9826506,19.710568 39.0447343,22.627996 42.3044278,27.688927 L42.421,27.873 L43.0203586,27.7525061 C45.3594976,27.293173 47.5089013,27.0436364 49.4698633,27.0052368 L50,27 C52.1018661,27 54.4278534,27.2514154 56.9796414,27.7525061 L57.578,27.873 L57.6955722,27.688927 C60.8716838,22.7577635 64.809565,19.8615889 69.4860616,19.0685453 L69.8567928,19.0103073 Z"></path>
    </g>
    <g transform="translate(77 498)">
      <path fill="currentColor" fill-rule="nonzero" d="M36.7437245 52.3315138C36.7793326 52.3711296 36.84234 52.4425801 36.9288723 52.5428294 37.070962 52.7074431 37.2287392 52.8946943 37.3983439 53.10158 37.8825324 53.6921983 38.3667081 54.3243476 38.8203139 54.9749691 39.2898527 55.6484437 39.7004369 56.3048525 40.0358345 56.9340232 40.6532156 58.0921656 41 59.1190021 41 60.0244565 41 62.7737508 38.7600555 65 36 65 33.2399445 65 31 62.7737508 31 60.0244565 31 59.1190021 31.3467844 58.0921656 31.9641655 56.9340232 32.2995631 56.3048525 32.7101473 55.6484437 33.1796861 54.9749691 33.6332919 54.3243476 34.1174676 53.6921983 34.6016561 53.10158 34.7712608 52.8946943 34.929038 52.7074431 35.0711277 52.5428294 35.15766 52.4425801 35.2206674 52.3711296 35.2562755 52.3315138 35.6535774 51.8894954 36.3464226 51.8894954 36.7437245 52.3315138zM36 54.5519107C35.5964864 55.0518171 35.195729 55.5803261 34.8203139 56.118796 34.3932134 56.7314001 34.023642 57.322241 33.7290579 57.8748498 33.2523916 58.7690261 33 59.5163632 33 60.0244565 33 61.6664263 34.3417775 63 36 63 37.6582225 63 39 61.6664263 39 60.0244565 39 59.5163632 38.7476084 58.7690261 38.2709421 57.8748498 37.976358 57.322241 37.6067866 56.7314001 37.1796861 56.118796 36.804271 55.5803261 36.4035136 55.0518171 36 54.5519107zM46.7689077 64.6393597C46.4157991 65.0640158 45.7852963 65.1220164 45.3606403 64.7689077 44.9359842 64.4157991 44.8779836 63.7852963 45.2310923 63.3606403 46.4725781 61.8676027 48.1719894 61 50 61 51.8280106 61 53.5274219 61.8676027 54.7689077 63.3606403 55.1220164 63.7852963 55.0640158 64.4157991 54.6393597 64.7689077 54.2147037 65.1220164 53.5842009 65.0640158 53.2310923 64.6393597 52.3551115 63.5858865 51.2075101 63 50 63 48.7924899 63 47.6448885 63.5858865 46.7689077 64.6393597zM31.6548477 50.6380748C31.1365579 50.4473023 30.8710527 49.8724938 31.0618251 49.354204 31.2525976 48.8359142 31.8274061 48.5704089 32.3456959 48.7611814 33.0690593 49.0274375 33.9315066 49.1741653 34.8397707 49.1741653 36.2963854 49.1741653 37.6150802 48.7939106 38.3970449 48.2024862 38.8375304 47.8693331 39.4646884 47.9563433 39.7978414 48.3968288 40.1309945 48.8373143 40.0439843 49.4644723 39.6034988 49.7976254 38.4473267 50.6720747 36.7061137 51.1741653 34.8397707 51.1741653 33.7008257 51.1741653 32.6046233 50.9876688 31.6548477 50.6380748zM60.3970449 49.7976254C59.9565593 49.4644723 59.8695492 48.8373143 60.2027022 48.3968288 60.5358553 47.9563433 61.1630133 47.8693331 61.6034988 48.2024862 62.3854634 48.7939106 63.7041582 49.1741653 65.160773 49.1741653 66.0690371 49.1741653 66.9314843 49.0274375 67.6548477 48.7611814 68.1731375 48.5704089 68.7479461 48.8359142 68.9387185 49.354204 69.129491 49.8724938 68.8639857 50.4473023 68.3456959 50.6380748 67.3959204 50.9876688 66.2997179 51.1741653 65.160773 51.1741653 63.2944299 51.1741653 61.5532169 50.6720747 60.3970449 49.7976254z"></path>
    </g>
  </g>
</svg>
