<svg xmlns="http://www.w3.org/2000/svg" width="17" height="17" viewBox="0 0 17 17" fill="none">
    <path fill-rule="evenodd" clip-rule="evenodd" d="M10.3783 7.77147C11.0947 7.77147 11.6756 8.38548 11.6756 9.1429V10.0572C11.6756 10.8146 11.0947 11.4286 10.3783 11.4286H3.45934C2.74286 11.4286 2.16204 10.8146 2.16204 10.0572V9.1429C2.16204 8.38548 2.74286 7.77147 3.45934 7.77147H10.3783ZM11.148 6.52278L9.93505 3.95815C9.7153 3.49353 9.26609 3.20004 8.77471 3.20004H5.06289C4.57151 3.20004 4.1223 3.49353 3.90255 3.95815L2.68955 6.52278C2.93277 6.44301 3.19131 6.40004 3.45934 6.40004H10.3783C10.6463 6.40004 10.9048 6.44301 11.148 6.52278ZM12.9729 8.3935V9.1429V10.0572C12.9729 11.572 11.8112 12.8 10.3783 12.8H3.45934C2.02639 12.8 0.864746 11.572 0.864746 10.0572V9.1429V8.3935C0.864746 7.6838 1.02105 6.98386 1.32128 6.34909L2.74221 3.34483C3.18172 2.41559 4.08013 1.82861 5.06289 1.82861H8.77471C9.75747 1.82861 10.6559 2.41559 11.0954 3.34483L12.5163 6.34909C12.8166 6.98386 12.9729 7.6838 12.9729 8.3935ZM7.78366 8.91433C7.42543 8.91433 7.13502 9.22133 7.13502 9.60004C7.13502 9.97875 7.42543 10.2858 7.78366 10.2858H9.94583C10.3041 10.2858 10.5945 9.97875 10.5945 9.60004C10.5945 9.22133 10.3041 8.91433 9.94583 8.91433H7.78366Z" fill="currentColor" fill-opacity="0.85"/>
    <path d="M15.2502 11.4284C15.2502 13.5787 13.6112 15.2498 11.6759 15.2498C9.74057 15.2498 8.10156 13.5787 8.10156 11.4284C8.10156 9.27803 9.74057 7.60693 11.6759 7.60693C13.6112 7.60693 15.2502 9.27803 15.2502 11.4284Z" fill="var(--g-color-base-background)" stroke="currentColor" stroke-width="1.5"/>
    <path d="M11.6759 16.4998C14.3661 16.4998 16.5002 14.2027 16.5002 11.4284C16.5002 8.65403 14.3661 6.35693 11.6759 6.35693C8.98567 6.35693 6.85156 8.65403 6.85156 11.4284C6.85156 14.2027 8.98567 16.4998 11.6759 16.4998Z" stroke="var(--g-color-base-background)"/>
    <path d="M12.973 10.0571L10.3784 12.8M10.3784 10.0571L12.973 12.8" stroke="currentColor" stroke-width="1.5" stroke-linecap="round" stroke-linejoin="round"/>
</svg>
