<svg xmlns="http://www.w3.org/2000/svg" viewBox="0 0 16 16">
    <path fill="currentColor" d="M13.3828 6.5C13.5352 6.5 13.6875 6.37305 13.6875 6.19531V5.17969C13.6875 5.02734 13.5352 4.875 13.3828 4.875H11.25V2.74219C11.25 2.58984 11.0977 2.4375 10.9453 2.4375H9.92969C9.75195 2.4375 9.625 2.58984 9.625 2.74219V5.89062C9.625 6.24609 9.87891 6.5 10.2344 6.5H13.3828ZM6.375 5.89062V2.74219C6.375 2.58984 6.22266 2.4375 6.07031 2.4375H5.05469C4.87695 2.4375 4.75 2.58984 4.75 2.74219V4.875H2.61719C2.43945 4.875 2.3125 5.02734 2.3125 5.17969V6.19531C2.3125 6.37305 2.43945 6.5 2.61719 6.5H5.76562C6.0957 6.5 6.375 6.24609 6.375 5.89062ZM6.375 13.5078V10.3594C6.375 10.0293 6.0957 9.75 5.76562 9.75H2.61719C2.43945 9.75 2.3125 9.90234 2.3125 10.0547V11.0703C2.3125 11.248 2.43945 11.375 2.61719 11.375H4.75V13.5078C4.75 13.6855 4.87695 13.8125 5.05469 13.8125H6.07031C6.22266 13.8125 6.375 13.6855 6.375 13.5078ZM11.25 13.5078V11.375H13.3828C13.5352 11.375 13.6875 11.248 13.6875 11.0703V10.0547C13.6875 9.90234 13.5352 9.75 13.3828 9.75H10.2344C9.87891 9.75 9.625 10.0293 9.625 10.3594V13.5078C9.625 13.6855 9.75195 13.8125 9.92969 13.8125H10.9453C11.0977 13.8125 11.25 13.6855 11.25 13.5078Z" />
</svg>

