<svg viewBox="0 0 12 7"  fill="currentColor"
    xmlns="http://www.w3.org/2000/svg">
    <path d="M8 7H11V5H12V2H6.66C6.085 0.79 4.86 0 3.5 0C1.57 0 0 1.57 0 3.5C0 5.43 1.57 7 3.5 7C4.86 7 6.09 6.21 6.66 5H8V7ZM10 6H9V4H5.97L5.855 4.335C5.5 5.33 4.555 6 3.5 6C2.11929 6 1 4.88071 1 3.5C1 2.11929 2.11929 1 3.5 1C4.555 1 5.5 1.67 5.855 2.665L5.97 3H11V4H10V6ZM3.5 5C2.67157 5 2 4.32843 2 3.5C2 2.67157 2.67157 2 3.5 2C4.32843 2 5 2.67157 5 3.5C5 4.32843 4.32843 5 3.5 5ZM3 3.5C3 3.22386 3.22386 3 3.5 3C3.77614 3 4 3.22386 4 3.5C4 3.77614 3.77614 4 3.5 4C3.22386 4 3 3.77614 3 3.5Z" />
</svg>


