<svg xmlns="http://www.w3.org/2000/svg" viewBox="0 0 221 204">
    <path d="M68.4597 2.52853V27.7564C68.4597 28.9827 69.3356 30.0339 70.562 30.2675C87.2054 33.2458 99.7025 48.0788 99.0601 65.715C98.4177 83.7599 83.7015 98.4177 65.715 99.1185C48.0788 99.7609 33.3042 87.2638 30.2675 70.6788C30.0339 69.4524 28.9827 68.5765 27.7564 68.5765H2.52853C1.01019 68.5765 -0.157769 69.8612 0.0174243 71.3212C3.4629 104.024 31.2603 129.427 64.9558 129.135C100.111 128.843 128.785 100.111 129.077 64.9558C129.369 31.2603 103.907 3.4629 71.2044 0.0174243C69.7444 -0.157769 68.4597 1.01019 68.4597 2.52853Z" fill="#EBF2FA" />
    <path fillRule="evenodd" clipRule="evenodd" d="M22.7358 18.3543L40.5472 36.1657C41.4231 37.0416 42.8247 37.1584 43.8758 36.3993C48.0221 33.3042 52.9275 31.2019 58.2417 30.2091C59.4681 29.9755 60.344 28.9827 60.344 27.698V2.52853C60.344 1.01019 59.0593 -0.157769 57.5409 0.0174243C44.4598 1.41897 32.4883 6.67478 22.911 14.6753C21.7431 15.6096 21.6847 17.3032 22.7358 18.3543ZM13.3334 24.4868C6.09205 33.8304 1.30343 45.1596 0.0186744 57.54C-0.156519 58.9999 1.06984 60.2846 2.52978 60.2846H27.6992C28.9256 60.2846 29.9768 59.4087 30.2103 58.1823C31.0279 53.5105 32.8382 49.1307 35.3494 45.3348C35.9917 44.342 35.8749 42.9989 35.0574 42.1229L17.1292 24.3116C16.0781 23.202 14.2677 23.3188 13.3334 24.4868ZM80.6078 131.879H113.603C115.471 131.879 116.99 133.397 117.048 135.324V200.555C117.048 202.482 115.471 204 113.603 204H80.6078C78.6807 204 77.1624 202.423 77.1624 200.555V135.324C77.1624 133.397 78.7391 131.879 80.6078 131.879ZM158.452 158.976H125.574C123.647 158.976 122.071 160.553 122.071 162.48V200.439C122.071 202.366 123.647 203.943 125.574 203.943H158.452C160.379 203.943 161.956 202.366 161.956 200.439V162.48C161.956 160.553 160.379 158.976 158.452 158.976ZM170.657 177.256H203.243C205.229 177.256 206.864 178.891 206.864 180.876V200.264C206.864 202.25 205.229 203.885 203.243 203.885H170.657C168.672 203.885 167.037 202.25 167.037 200.264V180.876C167.037 178.891 168.672 177.256 170.657 177.256Z" fill="#EBF2FA" />
    <path d="M134.275 171.532H21.2749C15.4351 171.532 10.6465 166.743 10.6465 160.903V87.6726C10.6465 81.8328 15.4351 77.0442 21.2749 77.0442H134.216C140.056 77.0442 144.845 81.8328 144.845 87.6726V160.903C144.903 166.802 140.114 171.532 134.275 171.532V171.532Z" fillRule="evenodd" clipRule="evenodd" stroke="#2EE5C0" stroke-width="4" stroke-linecap="round" stroke-linejoin="round" />
    <path d="M21.6246 90.7687C23.3017 90.7687 24.6613 89.4091 24.6613 87.732C24.6613 86.0549 23.3017 84.6953 21.6246 84.6953C19.9475 84.6953 18.5879 86.0549 18.5879 87.732C18.5879 89.4091 19.9475 90.7687 21.6246 90.7687Z" fill="#2EE5C0" />
    <path d="M31.4937 90.7687C33.1708 90.7687 34.5304 89.4091 34.5304 87.732C34.5304 86.0549 33.1708 84.6953 31.4937 84.6953C29.8166 84.6953 28.457 86.0549 28.457 87.732C28.457 89.4091 29.8166 90.7687 31.4937 90.7687Z" fill="#2EE5C0" />
    <path d="M41.3629 90.7687C43.04 90.7687 44.3995 89.4091 44.3995 87.732C44.3995 86.0549 43.04 84.6953 41.3629 84.6953C39.6857 84.6953 38.3262 86.0549 38.3262 87.732C38.3262 89.4091 39.6857 90.7687 41.3629 90.7687Z" fill="#2EE5C0" />
    <path d="M10.8223 98.592H144.495" stroke="#2EE5C0" stroke-width="4" stroke-linecap="round" stroke-linejoin="round" />
    <path d="M184.555 149.164L57.89 156.172C53.6269 156.406 50.123 153.135 50.123 148.872V51.1145C50.123 46.8514 53.6269 43.5812 57.89 43.8148L184.555 50.8225C187.825 50.9977 190.453 54.1512 190.453 57.8302V142.157C190.453 145.836 187.825 148.989 184.555 149.164Z" fill="#027BF3" />
    <path fillRule="evenodd" clipRule="evenodd" d="M65.1304 54.1512C65.1304 56.1368 63.5537 57.6551 61.5681 57.5383C59.5826 57.4799 58.0059 55.7864 58.0059 53.8009C58.0059 51.8153 59.641 50.297 61.5681 50.4138C63.4953 50.4722 65.1304 52.1657 65.1304 54.1512ZM76.6357 54.6174C76.6357 56.5445 75.059 58.0629 73.1319 58.0045C71.2047 57.9461 69.628 56.2525 69.628 54.3254C69.628 52.3983 71.2047 50.8799 73.1319 50.9383C75.059 51.0551 76.6357 52.6903 76.6357 54.6174ZM84.461 58.4718C86.3298 58.5886 87.8481 57.0702 87.8481 55.1431C87.8481 53.216 86.3298 51.5808 84.461 51.5224C82.5339 51.4056 81.0156 52.924 81.0156 54.8511C81.0156 56.7782 82.5923 58.4134 84.461 58.4718Z" fill="white" />
    <path fillRule="evenodd" clipRule="evenodd" d="M75.467 142.974V85.2772C71.496 84.7516 66.8826 84.8684 61.5684 85.9779V143.617L75.467 142.974ZM88.84 90.6509V142.45L77.7444 142.917V85.6871C82.0658 86.6214 85.6865 88.4318 88.84 90.6509ZM102.271 104.55C102.213 104.491 102.169 104.433 102.125 104.374C102.082 104.316 102.038 104.258 101.979 104.199C101.559 103.689 101.138 103.173 100.714 102.653L100.714 102.653C97.8391 99.1308 94.8401 95.4564 91.1759 92.4028V142.333L102.271 141.866V104.55ZM115.703 110.272C111.79 110.214 107.994 109.571 104.607 106.827V141.749L115.703 141.281V110.272ZM129.134 109.863C126.37 109.69 123.605 109.869 120.888 110.044L120.888 110.044L120.888 110.044C119.931 110.106 118.981 110.167 118.039 110.213V141.164L129.134 140.697V109.863ZM153.136 139.704L144.902 140.054V117.863C153.078 127.148 153.136 139.704 153.136 139.704ZM140.113 113.6C140.989 114.184 141.807 114.826 142.566 115.527V140.171L131.47 140.638V110.155C134.39 110.622 137.252 111.615 140.113 113.6Z" fill="#00236B" />
    <path d="M55.7449 76.4361C55.0549 77.2986 55.1947 78.5572 56.0573 79.2472C56.9198 79.9372 58.1784 79.7974 58.8684 78.9349L55.7449 76.4361ZM61.5113 72.4297L63.0863 71.1971C62.7095 70.7157 62.1333 70.433 61.522 70.4297C60.9107 70.4264 60.3314 70.7029 59.9495 71.1803L61.5113 72.4297ZM64.1409 79.0349C64.8217 79.9048 66.0787 80.0581 66.9485 79.3773C67.8184 78.6965 67.9717 77.4395 67.2909 76.5697L64.1409 79.0349ZM172.081 132.537C171.218 131.847 169.96 131.987 169.27 132.849C168.58 133.712 168.719 134.97 169.582 135.66L172.081 132.537ZM176.087 138.303L177.301 139.893C177.79 139.52 178.08 138.942 178.087 138.326C178.094 137.711 177.817 137.126 177.337 136.742L176.087 138.303ZM169.443 140.86C168.565 141.53 168.396 142.785 169.067 143.663C169.737 144.541 170.992 144.71 171.87 144.039L169.443 140.86ZM58.8684 78.9349L63.073 73.6791L59.9495 71.1803L55.7449 76.4361L58.8684 78.9349ZM59.9363 73.6623L64.1409 79.0349L67.2909 76.5697L63.0863 71.1971L59.9363 73.6623ZM169.582 135.66L174.838 139.865L177.337 136.742L172.081 132.537L169.582 135.66ZM174.874 136.714L169.443 140.86L171.87 144.039L177.301 139.893L174.874 136.714Z" fill="white" />
    <path d="M147.137 69.1464C146.033 69.1053 145.105 69.9668 145.064 71.0706C145.023 72.1744 145.884 73.1025 146.988 73.1436L147.137 69.1464ZM176.771 74.2532C177.875 74.2943 178.803 73.4328 178.844 72.329C178.885 71.2252 178.024 70.2971 176.92 70.256L176.771 74.2532ZM147.114 79.6573C146.01 79.6291 145.092 80.5015 145.064 81.6057C145.036 82.7099 145.908 83.6278 147.012 83.656L147.114 79.6573ZM176.795 84.4152C177.899 84.4433 178.817 83.571 178.846 82.4668C178.874 81.3626 178.001 80.4446 176.897 80.4165L176.795 84.4152ZM147.075 90.3435C145.97 90.337 145.07 91.2271 145.063 92.3317C145.057 93.4362 145.947 94.3369 147.052 94.3434L147.075 90.3435ZM176.834 94.5186C177.939 94.5251 178.84 93.635 178.846 92.5304C178.853 91.4258 177.962 90.5252 176.858 90.5187L176.834 94.5186ZM146.988 73.1436L176.771 74.2532L176.92 70.256L147.137 69.1464L146.988 73.1436ZM147.012 83.656L176.795 84.4152L176.897 80.4165L147.114 79.6573L147.012 83.656ZM147.052 94.3434L176.834 94.5186L176.858 90.5187L147.075 90.3435L147.052 94.3434Z" fill="white" />
    <path fillRule="evenodd" clipRule="evenodd" d="M143.442 71.2024C143.442 72.604 142.274 73.7135 140.872 73.6551C139.471 73.5967 138.303 72.3704 138.303 70.9688C138.303 69.5673 139.471 68.3993 140.872 68.5161C142.332 68.5745 143.442 69.8009 143.442 71.2024ZM143.443 81.5981C143.443 82.9996 142.275 84.1092 140.873 84.0508C139.472 83.9924 138.304 82.766 138.304 81.3645C138.304 79.9045 139.472 78.795 140.873 78.9118C142.333 78.9702 143.443 80.1965 143.443 81.5981ZM140.873 94.4457C142.275 94.5041 143.443 93.3945 143.443 91.993C143.443 90.5914 142.333 89.3651 140.873 89.3067C139.472 89.1899 138.304 90.3578 138.304 91.7594C138.304 93.1609 139.472 94.3873 140.873 94.4457Z" fill="white" />
    <path opacity="0.2" d="M190.452 91.8753V57.771C190.452 54.0919 187.824 50.9385 184.553 50.7633L160.902 49.4785C159.793 52.8656 159.15 56.5447 159.15 60.4573C159.15 78.0934 171.94 92.2841 187.24 92.1089C188.291 92.1673 189.4 92.0505 190.452 91.8753Z" fill="#00236B" />
    <path d="M220.645 58.8832C220.645 42.2982 209.024 28.1076 194.191 27.2316C178.891 26.3556 166.102 39.9039 166.102 57.5401C166.102 75.1762 178.891 89.3669 194.191 89.1917C209.024 89.0749 220.645 75.4682 220.645 58.8832Z" fill="#FF4645" />
    <path d="M215.329 40.3719C210.541 32.897 202.949 27.758 194.189 27.2324V58.2417L215.329 40.3719Z" fill="#FFCC00" />
    <path d="M215.329 40.3721L194.189 58.2418L220.644 58.8842C220.644 51.9932 218.658 45.5695 215.329 40.3721V40.3721Z" fill="#00236B" />
    <path d="M194.248 58.2408V27.2316C178.947 26.3556 166.158 39.9039 166.158 57.5401L194.248 58.2408Z" fill="#FF4645" />
    <path d="M161.151 14.7336C161.151 13.6291 160.256 12.7336 159.151 12.7336C158.047 12.7336 157.151 13.6291 157.151 14.7336H161.151ZM157.151 18.9383C157.151 20.0429 158.047 20.9383 159.151 20.9383C160.256 20.9383 161.151 20.0429 161.151 18.9383H157.151ZM161.151 27.8138C161.151 26.7093 160.256 25.8138 159.151 25.8138C158.047 25.8138 157.151 26.7093 157.151 27.8138H161.151ZM157.151 32.3689C157.151 33.4734 158.047 34.3689 159.151 34.3689C160.256 34.3689 161.151 33.4734 161.151 32.3689H157.151ZM167.97 25.5526C169.074 25.5526 169.97 24.6572 169.97 23.5526C169.97 22.4481 169.074 21.5526 167.97 21.5526V25.5526ZM163.707 21.5526C162.602 21.5526 161.707 22.4481 161.707 23.5526C161.707 24.6572 162.602 25.5526 163.707 25.5526V21.5526ZM154.538 25.5526C155.643 25.5526 156.538 24.6572 156.538 23.5526C156.538 22.4481 155.643 21.5526 154.538 21.5526V25.5526ZM150.275 21.5526C149.171 21.5526 148.275 22.4481 148.275 23.5526C148.275 24.6572 149.171 25.5526 150.275 25.5526V21.5526ZM157.151 14.7336V18.9383H161.151V14.7336H157.151ZM157.151 27.8138V32.3689H161.151V27.8138H157.151ZM167.97 21.5526H163.707V25.5526H167.97V21.5526ZM154.538 21.5526H150.275V25.5526H154.538V21.5526Z" fill="#2EE5C0" />
</svg>