<svg viewBox="0 0 16 15" ><path fill-rule="evenodd" clip-rule="evenodd" d="M14.9801 1.82618C15.2983 1.56101 15.3413 1.08809 15.0762 0.769881C14.811 0.451673 14.3381 0.40868 14.0199 0.673853L10.3757 3.71062C10.0432 3.98775 9.59091 4.07309 9.18023 3.93619L7.02502 3.21779C5.95599 2.86145 4.77774 3.19335 4.05189 4.0553L0.926317 7.76692C0.659507 8.08375 0.700062 8.55689 1.0169 8.8237C1.33373 9.09051 1.80687 9.04996 2.07368 8.73312L5.19926 5.0215C5.52919 4.62971 6.06476 4.47884 6.55068 4.64082L8.70589 5.35922C9.60939 5.66039 10.6044 5.47264 11.336 4.86295L14.9801 1.82618ZM13.5 8.00002H11.5C11.2239 8.00002 11 8.22388 11 8.50002V10.5V13C11 13.2762 11.2239 13.5 11.5 13.5H13H13.5C13.7761 13.5 14 13.2762 14 13V8.50002C14 8.22388 13.7761 8.00002 13.5 8.00002ZM9.5 13C9.5 13.2762 9.27614 13.5 9 13.5H7C6.72386 13.5 6.5 13.2762 6.5 13V12.5V10.5C6.5 10.2239 6.72386 10 7 10H9C9.27614 10 9.5 10.2239 9.5 10.5V13ZM5 13C5 13.2762 4.77614 13.5 4.5 13.5H3.5H2.5C2.22386 13.5 2 13.2762 2 13V12.5C2 12.2239 2.22386 12 2.5 12H4.5C4.77614 12 5 12.2239 5 12.5V13ZM2.5 15H3.5H4.5H7H9H11.5H13H13.5C14.6046 15 15.5 14.1046 15.5 13V8.50002C15.5 7.39545 14.6046 6.50002 13.5 6.50002H11.5C10.3954 6.50002 9.5 7.39545 9.5 8.50002V8.56303C9.34019 8.5219 9.17265 8.50002 9 8.50002H7C5.89543 8.50002 5 9.39545 5 10.5V10.563C4.84019 10.5219 4.67265 10.5 4.5 10.5H2.5C1.39543 10.5 0.5 11.3954 0.5 12.5V13C0.5 14.1046 1.39543 15 2.5 15Z" fill="currentColor" /></svg>
