<svg width="24" height="24" viewBox="0 0 24 24" fill="none" xmlns="http://www.w3.org/2000/svg"><path fill-rule="evenodd" clip-rule="evenodd" d="M19.134 13.343l1.629.912a.51.51 0 01.227.531c-.454 1.367-1.136 2.583-2.084 3.608a.458.458 0 01-.568.076l-1.63-.912a7.613 7.613 0 01-2.273 1.33v1.86c0 .19-.152.38-.379.456-1.326.266-2.728.304-4.13 0-.19-.076-.341-.266-.341-.456v-1.86a7.355 7.355 0 01-2.312-1.33l-1.629.912a.459.459 0 01-.568-.076 9.714 9.714 0 01-2.046-3.608.437.437 0 01.189-.531l1.63-.912a8.05 8.05 0 010-2.696l-1.63-.911a.437.437 0 01-.19-.532 9.714 9.714 0 012.047-3.607.459.459 0 01.568-.076l1.63.949a6.783 6.783 0 012.31-1.367v-1.86c0-.19.114-.38.342-.418 1.326-.304 2.728-.342 4.13 0a.442.442 0 01.379.417v1.861a7.3 7.3 0 01.067.025 3.901 3.901 0 004.677 5.755 6.447 6.447 0 01-.045 2.46zm1.67-3.634a.45.45 0 00.146-.19 3.864 3.864 0 01-.147.19zM8.978 11.976c0 1.71 1.326 3.038 3.03 3.038a3.02 3.02 0 003.032-3.038 3.044 3.044 0 00-3.031-3.038 3.02 3.02 0 00-3.031 3.038z" fill="currentColor"/><circle cx="17.783" cy="7.239" r="2.5" fill="#FF0400" fill-opacity=".8"/></svg>
