<svg viewBox="0 0 18 18" fill="currentColor" xmlns="http://www.w3.org/2000/svg">
    <path fill-rule="evenodd" clip-rule="evenodd" d="M8.69222 1.56606C8.88795 1.47798 9.11205 1.47798 9.30778 1.56606L15.3078 4.26613C15.5769 4.38725 15.75 4.65494 15.75 4.95007V7.24592C15.75 11.1569 13.413 14.6895 9.81353 16.2192L9.29335 16.4403C9.1059 16.5199 8.8941 16.5199 8.70665 16.4403L8.18647 16.2192C4.58703 14.6895 2.25 11.1569 2.25 7.24592V4.95007C2.25 4.65494 2.42309 4.38725 2.69222 4.26613L8.69222 1.56606ZM3.75 5.43501V7.24592C3.75 10.5552 5.72748 13.5443 8.77317 14.8387L9 14.9351L9.22683 14.8387C12.2725 13.5443 14.25 10.5552 14.25 7.24592V5.43501L9 3.07244L3.75 5.43501ZM9.75 8.79933C10.1984 8.53997 10.5 8.05521 10.5 7.5C10.5 6.67157 9.82843 6 9 6C8.17157 6 7.5 6.67157 7.5 7.5C7.5 8.05521 7.80165 8.53997 8.25 8.79933V11.25C8.25 11.6642 8.58579 12 9 12C9.41421 12 9.75 11.6642 9.75 11.25V8.79933Z"/>
</svg>
