<svg width="14" height="14" viewBox="0 0 14 14" fill="currentColor" xmlns="http://www.w3.org/2000/svg">
<path d="M8.625 13.0156C8.625 13.2695 8.47266 13.498 8.24414 13.5742C8.04102 13.6758 7.76172 13.6504 7.58398 13.4727L5.55273 11.6445C5.42578 11.543 5.375 11.3652 5.375 11.1875C5.375 11.0352 5.42578 10.8574 5.55273 10.7559L7.58398 8.92773C7.76172 8.75 8.04102 8.72461 8.24414 8.82617C8.47266 8.90234 8.625 9.13086 8.625 9.35938V10.5781H9.03125C10.0215 10.5781 10.8594 9.76562 10.8594 8.75V4.61133C10.0215 4.35742 9.4375 3.57031 9.4375 2.65625C9.4375 1.53906 10.3262 0.625 11.4688 0.625C12.5859 0.625 13.5 1.53906 13.5 2.65625C13.5 3.57031 12.8906 4.35742 12.0781 4.61133V8.75C12.0781 10.4512 10.707 11.7969 9.03125 11.7969H8.625V13.0156ZM12.2812 2.65625C12.2812 2.22461 11.9004 1.84375 11.4688 1.84375C11.0117 1.84375 10.6562 2.22461 10.6562 2.65625C10.6562 3.11328 11.0117 3.46875 11.4688 3.46875C11.9004 3.46875 12.2812 3.11328 12.2812 2.65625ZM5.375 1.23438C5.375 1.00586 5.50195 0.777344 5.73047 0.701172C5.93359 0.599609 6.21289 0.625 6.39062 0.802734L8.42188 2.63086C8.54883 2.73242 8.625 2.91016 8.625 3.0625C8.625 3.24023 8.54883 3.41797 8.42188 3.51953L6.39062 5.34766C6.21289 5.52539 5.93359 5.55078 5.73047 5.44922C5.50195 5.37305 5.375 5.14453 5.375 4.89062V3.67188H4.96875C3.95312 3.67188 3.14062 4.50977 3.14062 5.5V9.66406C3.95312 9.91797 4.5625 10.7051 4.5625 11.5938C4.5625 12.7363 3.64844 13.625 2.53125 13.625C1.38867 13.625 0.5 12.7363 0.5 11.5938C0.5 10.7051 1.08398 9.91797 1.92188 9.66406V5.5C1.92188 3.82422 3.26758 2.45312 4.96875 2.45312H5.375V1.23438ZM1.71875 11.5938C1.71875 12.0508 2.07422 12.4062 2.53125 12.4062C2.96289 12.4062 3.34375 12.0508 3.34375 11.5938C3.34375 11.1621 2.96289 10.7812 2.53125 10.7812C2.07422 10.7812 1.71875 11.1621 1.71875 11.5938Z"/>
</svg>
